<svg width="370" height="54" viewBox="0 0 370 54" fill="none" xmlns="http://www.w3.org/2000/svg">
<path d="M325.78 16.1788C325.634 16.3361 325.51 16.6323 325.51 16.8518V33.5156C325.51 33.7241 325.634 33.7789 325.784 33.629L332.356 27.0673C332.505 26.9174 332.622 26.6174 332.622 26.4053V16.8518C332.622 16.6323 332.749 16.3361 332.895 16.1788L340.568 8.08466C340.71 7.92739 340.834 7.62747 340.834 7.42265V1.10973L340.564 1L325.776 16.1752" fill="#009046"/>
<path d="M340.801 16.4604H333.97V23.0038H340.801V16.4604Z" fill="#009046"/>
<path d="M357.31 1.10974L350.858 7.52873C350.705 7.67869 350.585 7.97861 350.585 8.19075V16.0728C350.585 16.2849 350.413 16.4605 350.202 16.4605H349.637C349.426 16.4605 349.254 16.2849 349.254 16.0728V8.19075C349.254 7.97861 349.127 7.67869 348.977 7.52873L342.529 1.10974H342.143V26.4017C342.143 26.6138 342.267 26.9137 342.416 27.0637L348.974 33.6253C349.123 33.768 349.251 33.7204 349.251 33.5119V23.4135C349.251 23.1977 349.422 23.0294 349.633 23.0294H350.195C350.403 23.0294 350.581 23.1977 350.581 23.4135V33.5119C350.581 33.7204 350.701 33.7753 350.855 33.6253L357.419 27.0637C357.572 26.9137 357.7 26.6138 357.7 26.4017V1.10974H357.306" fill="#009046"/>
<path d="M364.221 38.1387H319V38.5666H364.221V38.1387Z" fill="black"/>
<path d="M320.837 49.0565L319.011 53.4821H320.487L320.76 52.7433H322.616L322.874 53.4821H324.54L322.718 49.0565H320.84M321.139 51.7741L321.712 50.2233L322.262 51.7741H321.139Z" fill="black"/>
<path d="M326.593 49.0565H325.087V53.4785H328.24V52.3995H326.593V49.0565Z" fill="black"/>
<path d="M331.98 50.6914H330.387V49.0565H328.882V53.4785H330.387V51.7704H331.98V53.4785H333.486V49.0565H331.98V50.6914Z" fill="black"/>
<path d="M335.757 49.0565L333.934 53.4821H335.41L335.684 52.7433H337.539L337.798 53.4821H339.453L337.637 49.0565H335.76M336.048 51.7741L336.628 50.2233L337.185 51.7741H336.048Z" fill="black"/>
<path d="M343.834 51.5107C343.626 51.3425 343.389 51.2547 343.123 51.2437V51.2291C343.367 51.1596 343.572 51.0462 343.739 50.8816C343.903 50.7353 343.984 50.5049 343.984 50.205C343.998 49.4406 343.477 49.0602 342.416 49.0529H339.923V53.4785H342.62C342.999 53.4785 343.276 53.4529 343.459 53.3944L343.703 53.2883L343.878 53.131C344.056 52.9591 344.14 52.6848 344.148 52.3373C344.14 51.9643 344.035 51.6826 343.838 51.5071M341.425 49.8685H341.906L342.223 49.8941L342.416 49.9928C342.5 50.077 342.536 50.2013 342.533 50.3549C342.533 50.5012 342.489 50.6183 342.398 50.7097C342.307 50.7975 342.139 50.8414 341.909 50.8414H341.425V49.8685ZM342.504 52.5568C342.383 52.6446 342.186 52.6848 341.909 52.6848H341.425V51.6278H341.909C342.186 51.6278 342.387 51.6607 342.504 51.7485C342.62 51.8326 342.675 51.9752 342.675 52.1581C342.675 52.341 342.624 52.4727 342.504 52.5568Z" fill="black"/>
<path d="M344.578 50.1282H345.759V53.4785H347.253V50.1282H348.434V49.0565H344.578V50.1282Z" fill="black"/>
<path d="M351.201 48.9431C350.742 48.9431 350.392 48.9834 350.133 49.0711C349.87 49.1516 349.659 49.2723 349.491 49.4296C349.043 49.7917 348.813 50.4025 348.802 51.2657C348.799 51.9386 348.974 52.4909 349.338 52.9262C349.714 53.3651 350.333 53.5882 351.197 53.5955C352.108 53.5882 352.746 53.3249 353.118 52.8311C353.424 52.4763 353.581 51.9533 353.585 51.273C353.585 50.589 353.41 50.0367 353.049 49.6088C352.684 49.1699 352.065 48.9504 351.197 48.9431M351.197 52.586C350.938 52.586 350.734 52.48 350.581 52.2605C350.421 52.0484 350.337 51.7192 350.337 51.2693C350.337 50.8194 350.421 50.4756 350.581 50.2635C350.738 50.0477 350.938 49.9416 351.197 49.9416C351.74 49.9416 352.028 50.3805 352.046 51.2693C352.028 52.1581 351.74 52.5933 351.197 52.586Z" fill="black"/>
<path d="M356.628 48.9431C356.176 48.9431 355.823 48.9834 355.564 49.0711C355.305 49.1516 355.083 49.2723 354.926 49.4296C354.474 49.7917 354.244 50.4025 354.241 51.2657C354.23 51.9386 354.412 52.4909 354.784 52.9262C355.152 53.3651 355.768 53.5882 356.628 53.5955C357.543 53.5882 358.181 53.3249 358.553 52.8311C358.866 52.4763 359.016 51.9533 359.023 51.273C359.023 50.589 358.852 50.0367 358.487 49.6088C358.119 49.1699 357.5 48.9504 356.628 48.9431ZM356.628 52.586C356.377 52.586 356.176 52.48 356.02 52.2605C355.852 52.0484 355.768 51.7192 355.768 51.2693C355.768 50.8194 355.852 50.4756 356.02 50.2635C356.176 50.0477 356.377 49.9416 356.628 49.9416C357.182 49.9416 357.474 50.3805 357.492 51.2693C357.474 52.1581 357.182 52.5933 356.628 52.586Z" fill="black"/>
<path d="M364.006 51.9972C363.977 51.7704 363.889 51.6168 363.769 51.5217C363.642 51.4303 363.492 51.3864 363.314 51.3864V51.3242C363.543 51.2766 363.729 51.1596 363.868 50.9804C364.017 50.8048 364.086 50.5634 364.086 50.2818C364.086 49.7917 363.944 49.4735 363.653 49.2942C363.375 49.126 362.971 49.0492 362.471 49.0565H359.873V53.4821H361.378V51.8765H361.848C362.111 51.8728 362.275 51.9057 362.358 51.9789C362.446 52.052 362.497 52.2349 362.515 52.4946L362.65 53.4821H364.199L364.01 52.0008M362.446 50.8999C362.333 50.9877 362.184 51.017 362.001 51.017H361.382V49.9453H361.972C362.395 49.9453 362.614 50.1135 362.614 50.4756C362.614 50.6805 362.555 50.8194 362.45 50.8963" fill="black"/>
<path d="M321.916 47.2826C322.153 47.1216 322.273 46.8949 322.299 46.6023V42.9594H320.804V46.189C320.804 46.3536 320.677 46.4377 320.513 46.4377L319 46.445V47.5167H320.921C321.3 47.5167 321.668 47.4435 321.912 47.2862" fill="black"/>
<path d="M364.214 41.3318H362.705V45.7794H364.214V41.3318Z" fill="black"/>
<path d="M326.553 46.7011V45.7794H360.755C361.75 45.7794 362.063 45.4648 362.063 44.8247V41.3281H360.554V44.3566L360.445 44.6784H358.371V43.7165C358.371 43.1606 357.963 42.8862 357.15 42.8789H354.784V43.9579H356.873C357.022 43.9579 357.139 44.0749 357.139 44.2286V44.6784H349.043V42.9557H347.538V44.6784H338.95V42.9557H337.441V44.6784H326.549C326.556 44.4919 326.556 42.9996 326.549 42.9557H324.194C323.83 42.9338 323.524 43.0325 323.298 43.2337C323.072 43.4532 322.959 43.9396 322.951 44.4553C322.959 44.9272 323.068 45.271 323.283 45.4721C323.502 45.6733 323.779 45.772 324.125 45.7794H325.317V46.1927C325.317 46.3426 325.197 46.4341 325.047 46.4341H322.955V47.513H325.324C326.137 47.5277 326.553 47.2533 326.553 46.7011ZM325.324 44.9418H325.04C324.796 44.9418 324.617 44.9015 324.511 44.8247C324.413 44.7443 324.366 44.598 324.366 44.4114C324.366 44.2468 324.406 44.1188 324.482 44.0311C324.562 43.9433 324.701 43.9067 324.901 43.9067H325.321V44.9418H325.324Z" fill="black"/>
<path d="M349.039 46.2804H347.534V47.3996H349.039V46.2804Z" fill="black"/>
<path d="M337.933 41.3428H336.424V42.4583H337.933V41.3428Z" fill="black"/>
<path d="M339.934 41.3428H338.425V42.4583H339.934V41.3428Z" fill="black"/>
<path d="M27.9823 34.4331C26.4512 35.2013 24.9201 35.7616 23.452 36.105C21.966 36.4755 20.4529 36.6563 18.9578 36.6563C17.2466 36.6563 15.7785 36.4032 14.4996 35.8791C13.2207 35.364 12.2029 34.6048 11.4464 33.5656C10.6718 32.5263 10.2035 31.2972 10.0504 29.8784C9.9063 28.4776 10.0684 26.9594 10.5728 25.3417C11.6085 21.9437 13.5629 19.2054 16.454 17.1178C19.3541 15.0393 22.6504 14 26.3701 14C27.6941 14 28.955 14.1536 30.1258 14.4338C31.3057 14.723 32.4045 15.1748 33.4672 15.7803L31.9001 20.9135C30.9364 20.1182 29.9007 19.5398 28.8019 19.1512C27.7031 18.7807 26.5412 18.5819 25.3254 18.5819C23.1188 18.5819 21.2094 19.1693 19.5883 20.3893C17.9581 21.5822 16.8143 23.227 16.1838 25.3417C15.5714 27.3841 15.6614 29.0108 16.5081 30.2489C17.3366 31.4689 18.7777 32.0744 20.8041 32.0744C22.1101 32.0744 23.4971 31.8485 24.9561 31.3876C26.4242 30.9267 27.9463 30.2308 29.5224 29.3271L27.9823 34.4331Z" fill="black"/>
<path d="M35.1064 36.2675L51.291 14.3794H57.5775L59.4058 36.2675H53.6237L53.3625 32.011H43.9687L40.9426 36.2675H35.1154M46.6977 28.2606H53.1283L52.6059 19.9463L46.6977 28.2606Z" fill="black"/>
<path d="M67.2236 36.2675L73.8884 14.3794H81.9583C84.9124 14.3794 86.9568 14.9036 88.0556 15.9338C89.1544 16.9731 89.3616 18.5636 88.7041 20.7416C88.3528 21.9526 87.7044 22.9828 86.8397 23.8414C85.9391 24.7089 84.7683 25.4229 83.2912 26.0103C83.7775 26.2181 84.1558 26.5344 84.444 27.0044C84.7412 27.4743 84.9304 28.0617 85.0385 28.7666L86.2363 36.2585H80.0849L79.2203 29.9595C79.0762 28.9564 78.788 28.2696 78.3376 27.881C77.8693 27.5105 77.1218 27.3297 76.077 27.3297H75.7348L75.4286 27.3478L72.7266 36.2585H67.2326M79.2743 23.3533C80.265 23.3533 81.0846 23.1455 81.706 22.7207C82.3455 22.296 82.7868 21.6453 83.039 20.7868C83.3002 19.9644 83.2282 19.3318 82.8409 18.907C82.4536 18.4733 81.7871 18.2744 80.8144 18.2744H78.2025L76.6444 23.3624H79.2653L79.2743 23.3533Z" fill="black"/>
<path d="M117.849 36.2675L124.514 14.3794H132.566C135.547 14.3794 137.573 14.9036 138.672 15.9338C139.771 16.9731 139.987 18.5636 139.311 20.7416C138.942 21.9526 138.33 22.9828 137.438 23.8414C136.555 24.7089 135.376 25.4229 133.917 26.0103C134.385 26.2181 134.763 26.5344 135.06 27.0044C135.349 27.4743 135.565 28.0617 135.655 28.7666L136.853 36.2585H130.692L129.846 29.9595C129.683 28.9564 129.395 28.2696 128.936 27.881C128.477 27.5105 127.738 27.3297 126.675 27.3297H126.333L126.018 27.3478L123.307 36.2585H117.831M129.864 23.3533C130.854 23.3533 131.674 23.1455 132.295 22.7207C132.917 22.296 133.358 21.6453 133.619 20.7868C133.88 19.9644 133.817 19.3318 133.439 18.907C133.043 18.4733 132.376 18.2744 131.404 18.2744H128.792L127.234 23.3624H129.864V23.3533Z" fill="black"/>
<path d="M146.417 36.2675L153.073 14.3794H167.655L166.421 18.41H157.306L155.955 22.8744H164.656L163.431 26.9411H154.703L153.118 32.1646H162.503L161.26 36.2675H146.417Z" fill="black"/>
<path d="M183.704 22.5219L179.516 36.2675H174.104L180.786 14.3794H185.578L193.287 27.4382L197.277 14.3794H202.672L195.989 36.2675H191.72L183.704 22.5219Z" fill="black"/>
<path d="M213.651 36.2675L219.064 18.4642H211.849L213.092 14.3794H233.276L232.033 18.4642H224.828L219.388 36.2675H213.651Z" fill="black"/>
<path d="M235.5 36.2675L251.685 14.3794H257.981L259.818 36.2675H254.036L253.774 32.011H244.372L241.337 36.2675H235.518M247.101 28.2606H253.54L253.027 19.9463L247.101 28.2606Z" fill="black"/>
<path d="M268.851 36.2675L275.525 14.3794H280.974L275.597 32.0471H285L283.721 36.2675H268.851Z" fill="black"/>
</svg>
